<?xml version="1.0" encoding="UTF-8"?>
<svg xmlns="http://www.w3.org/2000/svg" xmlns:xlink="http://www.w3.org/1999/xlink" width="375pt" height="374.999991pt" viewBox="0 0 375 374.999991" version="1.2">
<defs>
<clipPath id="clip1">
  <path d="M 144 295 L 233 295 L 233 337.089844 L 144 337.089844 Z M 144 295 "/>
</clipPath>
<clipPath id="clip2">
  <path d="M 58.308594 160 L 101 160 L 101 176 L 58.308594 176 Z M 58.308594 160 "/>
</clipPath>
<clipPath id="clip3">
  <path d="M 275 160 L 317.058594 160 L 317.058594 176 L 275 176 Z M 275 160 "/>
</clipPath>
<clipPath id="clip4">
  <path d="M 180 38.789062 L 196 38.789062 L 196 81 L 180 81 Z M 180 38.789062 "/>
</clipPath>
</defs>
<g id="surface1">
<rect x="0" y="0" width="375" height="374.999991" style="fill:rgb(100%,100%,100%);fill-opacity:1;stroke:none;"/>
<rect x="0" y="0" width="375" height="374.999991" style="fill:rgb(100%,100%,100%);fill-opacity:1;stroke:none;"/>
<rect x="0" y="0" width="375" height="374.999991" style="fill:rgb(100%,100%,100%);fill-opacity:1;stroke:none;"/>
<path style=" stroke:none;fill-rule:nonzero;fill:rgb(0%,0%,0%);fill-opacity:1;" d="M 237.945312 115.710938 C 224.066406 102.183594 205.621094 94.972656 186.183594 95.46875 C 147.214844 96.355469 115.878906 128.746094 116.277344 167.550781 C 116.472656 182.953125 121.433594 197.566406 130.753906 209.8125 C 137.398438 218.5 141.066406 229.363281 141.066406 240.324219 C 141.066406 244.371094 144.4375 247.730469 148.503906 247.730469 L 227.335938 247.730469 C 231.402344 247.730469 234.773438 244.371094 234.773438 240.324219 C 234.773438 229.363281 238.34375 218.601562 244.988281 210.007812 C 254.605469 197.46875 259.664062 182.558594 259.664062 166.859375 C 259.5625 147.40625 251.828125 129.335938 237.945312 115.710938 Z M 231.402344 175.746094 C 227.335938 175.746094 223.964844 172.386719 223.964844 168.339844 C 223.964844 155.007812 216.628906 142.765625 204.726562 136.542969 C 201.058594 134.667969 199.671875 130.125 201.652344 126.570312 C 203.539062 122.917969 208.097656 121.535156 211.667969 123.511719 C 228.425781 132.398438 238.839844 149.578125 238.839844 168.4375 C 238.839844 172.386719 235.566406 175.746094 231.402344 175.746094 Z M 231.402344 175.746094 "/>
<path style=" stroke:none;fill-rule:nonzero;fill:rgb(0%,0%,0%);fill-opacity:1;" d="M 227.238281 290.683594 L 148.40625 290.683594 C 144.339844 290.683594 140.96875 287.324219 140.96875 283.277344 C 140.96875 279.226562 144.339844 275.871094 148.40625 275.871094 L 227.238281 275.871094 C 231.304688 275.871094 234.675781 279.226562 234.675781 283.277344 C 234.675781 287.324219 231.304688 290.683594 227.238281 290.683594 Z M 227.238281 290.683594 "/>
<path style=" stroke:none;fill-rule:nonzero;fill:rgb(0%,0%,0%);fill-opacity:1;" d="M 227.238281 270.242188 L 148.40625 270.242188 C 144.339844 270.242188 140.96875 266.886719 140.96875 262.835938 C 140.96875 258.789062 144.339844 255.429688 148.40625 255.429688 L 227.238281 255.429688 C 231.304688 255.429688 234.675781 258.789062 234.675781 262.835938 C 234.675781 266.886719 231.304688 270.242188 227.238281 270.242188 Z M 227.238281 270.242188 "/>
<g clip-path="url(#clip1)" clip-rule="nonzero">
<path style=" stroke:none;fill-rule:nonzero;fill:rgb(0%,0%,0%);fill-opacity:1;" d="M 230.707031 298.777344 C 229.320312 296.902344 227.039062 295.71875 224.660156 295.71875 L 151.476562 295.71875 C 149.097656 295.71875 146.816406 296.804688 145.429688 298.777344 C 144.042969 300.65625 143.644531 303.125 144.339844 305.394531 C 150.488281 324.351562 168.039062 337.089844 187.96875 337.089844 C 207.902344 337.089844 225.453125 324.351562 231.601562 305.394531 C 232.492188 303.125 232.097656 300.753906 230.707031 298.777344 Z M 230.707031 298.777344 "/>
</g>
<g clip-path="url(#clip2)" clip-rule="nonzero">
<path style=" stroke:none;fill-rule:nonzero;fill:rgb(0%,0%,0%);fill-opacity:1;" d="M 100.609375 167.648438 C 100.609375 163.601562 97.238281 160.242188 93.171875 160.242188 L 65.902344 160.242188 C 61.835938 160.242188 58.464844 163.601562 58.464844 167.648438 C 58.464844 171.695312 61.835938 175.054688 65.902344 175.054688 L 93.171875 175.054688 C 97.238281 175.054688 100.609375 171.796875 100.609375 167.648438 Z M 100.609375 167.648438 "/>
</g>
<g clip-path="url(#clip3)" clip-rule="nonzero">
<path style=" stroke:none;fill-rule:nonzero;fill:rgb(0%,0%,0%);fill-opacity:1;" d="M 309.839844 160.242188 L 282.570312 160.242188 C 278.503906 160.242188 275.132812 163.601562 275.132812 167.648438 C 275.132812 171.695312 278.503906 175.054688 282.570312 175.054688 L 309.839844 175.054688 C 313.90625 175.054688 317.277344 171.695312 317.277344 167.648438 C 317.277344 163.601562 314.003906 160.242188 309.839844 160.242188 Z M 309.839844 160.242188 "/>
</g>
<path style=" stroke:none;fill-rule:nonzero;fill:rgb(0%,0%,0%);fill-opacity:1;" d="M 106.855469 76.507812 C 103.980469 73.644531 99.21875 73.644531 96.34375 76.507812 C 93.46875 79.371094 93.46875 84.113281 96.34375 86.976562 L 115.582031 106.132812 C 117.070312 107.613281 118.953125 108.304688 120.835938 108.304688 C 122.722656 108.304688 124.605469 107.613281 126.09375 106.132812 C 128.96875 103.269531 128.96875 98.527344 126.09375 95.664062 Z M 106.855469 76.507812 "/>
<path style=" stroke:none;fill-rule:nonzero;fill:rgb(0%,0%,0%);fill-opacity:1;" d="M 260.160156 229.164062 C 257.285156 226.300781 252.523438 226.300781 249.648438 229.164062 C 246.773438 232.027344 246.773438 236.769531 249.648438 239.632812 L 268.886719 258.789062 C 270.371094 260.269531 272.257812 260.960938 274.140625 260.960938 C 276.023438 260.960938 277.910156 260.269531 279.398438 258.789062 C 282.273438 255.925781 282.273438 251.183594 279.398438 248.320312 Z M 260.160156 229.164062 "/>
<g clip-path="url(#clip4)" clip-rule="nonzero">
<path style=" stroke:none;fill-rule:nonzero;fill:rgb(0%,0%,0%);fill-opacity:1;" d="M 187.871094 38.789062 C 183.804688 38.789062 180.433594 42.148438 180.433594 46.195312 L 180.433594 73.351562 C 180.433594 77.398438 183.804688 80.753906 187.871094 80.753906 C 191.9375 80.753906 195.308594 77.398438 195.308594 73.351562 L 195.308594 46.195312 C 195.308594 42.046875 191.9375 38.789062 187.871094 38.789062 Z M 187.871094 38.789062 "/>
</g>
<path style=" stroke:none;fill-rule:nonzero;fill:rgb(0%,0%,0%);fill-opacity:1;" d="M 254.902344 108.402344 C 256.789062 108.402344 258.671875 107.710938 260.160156 106.230469 L 279.398438 87.074219 C 282.273438 84.210938 282.273438 79.472656 279.398438 76.609375 C 276.519531 73.746094 271.761719 73.746094 268.886719 76.609375 L 249.648438 95.765625 C 246.773438 98.628906 246.773438 103.367188 249.648438 106.230469 C 251.035156 107.613281 252.921875 108.402344 254.902344 108.402344 Z M 254.902344 108.402344 "/>
<path style=" stroke:none;fill-rule:nonzero;fill:rgb(0%,0%,0%);fill-opacity:1;" d="M 115.582031 229.164062 L 96.34375 248.320312 C 93.46875 251.183594 93.46875 255.925781 96.34375 258.789062 C 97.832031 260.269531 99.714844 260.960938 101.601562 260.960938 C 103.484375 260.960938 105.367188 260.269531 106.855469 258.789062 L 126.09375 239.632812 C 128.96875 236.769531 128.96875 232.027344 126.09375 229.164062 C 123.21875 226.203125 118.558594 226.203125 115.582031 229.164062 Z M 115.582031 229.164062 "/>
</g>
</svg>
