<?xml version="1.0" encoding="UTF-8"?>
<svg xmlns="http://www.w3.org/2000/svg" xmlns:xlink="http://www.w3.org/1999/xlink" width="375pt" height="374.999991pt" viewBox="0 0 375 374.999991" version="1.2">
<defs>
<clipPath id="clip1">
  <path d="M 27.65625 152 L 70 152 L 70 167 L 27.65625 167 Z M 27.65625 152 "/>
</clipPath>
<clipPath id="clip2">
  <path d="M 305 152 L 346.96875 152 L 346.96875 167 L 305 167 Z M 305 152 "/>
</clipPath>
</defs>
<g id="surface1">
<path style=" stroke:none;fill-rule:nonzero;fill:rgb(0%,0%,0%);fill-opacity:1;" d="M 187.3125 55.554688 C 129.941406 55.554688 83.269531 102.285156 83.269531 159.722656 C 83.269531 198.144531 104.910156 233.792969 138.757812 251.742188 L 138.757812 284.722656 C 138.757812 288.5625 141.867188 291.667969 145.695312 291.667969 L 228.929688 291.667969 C 232.765625 291.667969 235.867188 288.5625 235.867188 284.722656 L 235.867188 251.742188 C 269.722656 233.796875 291.355469 198.152344 291.355469 159.722656 C 291.355469 102.285156 244.683594 55.554688 187.3125 55.554688 Z M 225.949219 241.1875 C 223.535156 242.339844 221.992188 244.785156 221.992188 247.464844 L 221.992188 277.777344 L 152.632812 277.777344 L 152.632812 247.464844 C 152.632812 244.785156 151.089844 242.347656 148.675781 241.195312 C 117.375 226.277344 97.140625 194.296875 97.140625 159.722656 C 97.140625 109.945312 137.59375 69.445312 187.3125 69.445312 C 237.03125 69.445312 277.484375 109.945312 277.484375 159.722656 C 277.484375 194.296875 257.257812 226.285156 225.949219 241.1875 Z M 225.949219 241.1875 "/>
<path style=" stroke:none;fill-rule:nonzero;fill:rgb(0%,0%,0%);fill-opacity:1;" d="M 228.929688 305.554688 L 145.695312 305.554688 C 141.867188 305.554688 138.757812 308.660156 138.757812 312.5 C 138.757812 316.339844 141.867188 319.445312 145.695312 319.445312 L 228.929688 319.445312 C 232.765625 319.445312 235.867188 316.339844 235.867188 312.5 C 235.867188 308.660156 232.765625 305.554688 228.929688 305.554688 Z M 228.929688 305.554688 "/>
<path style=" stroke:none;fill-rule:nonzero;fill:rgb(0%,0%,0%);fill-opacity:1;" d="M 228.929688 333.332031 L 145.695312 333.332031 C 141.867188 333.332031 138.757812 336.4375 138.757812 340.277344 C 138.757812 344.117188 141.867188 347.222656 145.695312 347.222656 L 228.929688 347.222656 C 232.765625 347.222656 235.867188 344.117188 235.867188 340.277344 C 235.867188 336.4375 232.765625 333.332031 228.929688 333.332031 Z M 228.929688 333.332031 "/>
<path style=" stroke:none;fill-rule:nonzero;fill:rgb(0%,0%,0%);fill-opacity:1;" d="M 215.058594 361.109375 L 159.566406 361.109375 C 155.738281 361.109375 152.632812 364.214844 152.632812 368.054688 C 152.632812 371.894531 155.738281 375 159.566406 375 L 215.058594 375 C 218.894531 375 221.992188 371.894531 221.992188 368.054688 C 221.992188 364.214844 218.894531 361.109375 215.058594 361.109375 Z M 215.058594 361.109375 "/>
<path style=" stroke:none;fill-rule:nonzero;fill:rgb(0%,0%,0%);fill-opacity:1;" d="M 187.3125 83.332031 C 183.484375 83.332031 180.375 86.445312 180.375 90.277344 C 180.375 94.109375 183.484375 97.222656 187.3125 97.222656 C 221.738281 97.222656 249.738281 125.265625 249.738281 159.722656 C 249.738281 163.554688 252.839844 166.667969 256.675781 166.667969 C 260.511719 166.667969 263.613281 163.554688 263.613281 159.722656 C 263.613281 117.605469 229.382812 83.332031 187.3125 83.332031 Z M 187.3125 83.332031 "/>
<g clip-path="url(#clip1)" clip-rule="nonzero">
<path style=" stroke:none;fill-rule:nonzero;fill:rgb(0%,0%,0%);fill-opacity:1;" d="M 62.460938 152.777344 L 34.714844 152.777344 C 30.886719 152.777344 27.777344 155.890625 27.777344 159.722656 C 27.777344 163.554688 30.886719 166.667969 34.714844 166.667969 L 62.460938 166.667969 C 66.289062 166.667969 69.394531 163.554688 69.394531 159.722656 C 69.394531 155.890625 66.289062 152.777344 62.460938 152.777344 Z M 62.460938 152.777344 "/>
</g>
<g clip-path="url(#clip2)" clip-rule="nonzero">
<path style=" stroke:none;fill-rule:nonzero;fill:rgb(0%,0%,0%);fill-opacity:1;" d="M 339.910156 152.777344 L 312.164062 152.777344 C 308.332031 152.777344 305.230469 155.890625 305.230469 159.722656 C 305.230469 163.554688 308.332031 166.667969 312.164062 166.667969 L 339.910156 166.667969 C 343.746094 166.667969 346.847656 163.554688 346.847656 159.722656 C 346.847656 155.890625 343.746094 152.777344 339.910156 152.777344 Z M 339.910156 152.777344 "/>
</g>
<path style=" stroke:none;fill-rule:nonzero;fill:rgb(0%,0%,0%);fill-opacity:1;" d="M 187.3125 41.667969 C 191.140625 41.667969 194.25 38.554688 194.25 34.722656 L 194.25 6.945312 C 194.25 3.109375 191.140625 0 187.3125 0 C 183.484375 0 180.375 3.109375 180.375 6.945312 L 180.375 34.722656 C 180.375 38.554688 183.484375 41.667969 187.3125 41.667969 Z M 187.3125 41.667969 "/>
<path style=" stroke:none;fill-rule:nonzero;fill:rgb(0%,0%,0%);fill-opacity:1;" d="M 94.125 76.242188 C 95.476562 77.597656 97.25 78.277344 99.027344 78.277344 C 100.804688 78.277344 102.578125 77.597656 103.929688 76.242188 C 106.644531 73.527344 106.644531 69.140625 103.929688 66.421875 L 84.316406 46.785156 C 81.601562 44.070312 77.21875 44.070312 74.507812 46.785156 C 71.796875 49.5 71.796875 53.890625 74.507812 56.605469 Z M 94.125 76.242188 "/>
<path style=" stroke:none;fill-rule:nonzero;fill:rgb(0%,0%,0%);fill-opacity:1;" d="M 280.5 243.203125 C 277.789062 240.484375 273.40625 240.484375 270.695312 243.203125 C 267.980469 245.917969 267.980469 250.304688 270.695312 253.019531 L 290.316406 272.667969 C 291.667969 274.019531 293.445312 274.703125 295.21875 274.703125 C 296.996094 274.703125 298.773438 274.019531 300.125 272.667969 C 302.835938 269.953125 302.835938 265.5625 300.125 262.847656 Z M 280.5 243.203125 "/>
<path style=" stroke:none;fill-rule:nonzero;fill:rgb(0%,0%,0%);fill-opacity:1;" d="M 290.316406 46.785156 L 270.695312 66.421875 C 267.980469 69.132812 267.980469 73.527344 270.695312 76.242188 C 272.046875 77.597656 273.820312 78.277344 275.597656 78.277344 C 277.375 78.277344 279.148438 77.597656 280.5 76.242188 L 300.125 56.605469 C 302.835938 53.894531 302.835938 49.5 300.125 46.785156 C 297.414062 44.070312 293.023438 44.070312 290.316406 46.785156 Z M 290.316406 46.785156 "/>
<path style=" stroke:none;fill-rule:nonzero;fill:rgb(0%,0%,0%);fill-opacity:1;" d="M 94.125 243.203125 L 74.507812 262.847656 C 71.796875 265.5625 71.796875 269.953125 74.507812 272.667969 C 75.859375 274.019531 77.636719 274.703125 79.410156 274.703125 C 81.1875 274.703125 82.960938 274.019531 84.316406 272.667969 L 103.929688 253.019531 C 106.644531 250.304688 106.644531 245.917969 103.929688 243.203125 C 101.21875 240.484375 96.828125 240.484375 94.125 243.203125 Z M 94.125 243.203125 "/>
</g>
</svg>
